# xmcd
#
# Track frame offsets:
#	150
#	14883
#	30022
#	47491
#	58133
#	75299
#	89035
#	105213
#	123455
#	139567
#
# Disc length: 1984 seconds
#
# Revision: 1
# Processed by: cddbd v1.5PL3 Copyright (c) Steve Scherf et al.
# Submitted via: audiograbber 1.83.01
#
DISCID=7307be0a
DTITLE=Kitchen Syncopators - Frank Lemon
DYEAR=2004
DGENRE=
TTITLE0=Mexico
TTITLE1=Anjolie
TTITLE2=Poor Boy
TTITLE3=Ugly Town Gal
TTITLE4=Same Thing Different Religion
TTITLE5=Dixie Hoss Stringbean and Me
TTITLE6=Vous Recoltez ce que Vous Semez
TTITLE7=Coal Black Heaven
TTITLE8=Chimera My Darling
TTITLE9=Mirrors
EXTD=
EXTT0=
EXTT1=
EXTT2=
EXTT3=
EXTT4=
EXTT5=
EXTT6=
EXTT7=
EXTT8=
EXTT9=
PLAYORDER=
